HIERARCHY
ROOT Hips
{
	OFFSET 0.000000 0.000000 0.000000 
	CHANNELS 6 Xposition Yposition Zposition Yrotation Xrotation Zrotation
	JOINT Spine
	{
		OFFSET 0.000000 0.072080 0.012321 
		CHANNELS 3 Xrotation Yrotation Zrotation
		JOINT Spine1
		{
			OFFSET 0.000000 0.126984 -0.001294 
			CHANNELS 3 Xrotation Yrotation Zrotation
			JOINT Spine2
			{
				OFFSET 0.000000 0.106559 -0.010096 
				CHANNELS 3 Xrotation Yrotation Zrotation
				JOINT Neck
				{
					OFFSET 0.000000 0.108417 -0.034017 
					CHANNELS 3 Xrotation Yrotation Zrotation
					JOINT Neck1
					{
						OFFSET 0.000000 0.033906 0.007241 
						CHANNELS 3 Xrotation Yrotation Zrotation
						JOINT Head
						{
							OFFSET 0.000000 0.031458 0.006707 
							CHANNELS 3 Xrotation Yrotation Zrotation
							End Site
							{
								OFFSET 0.000000 0.179920 0.000962 
							}
						}
					}
				}
				JOINT LeftShoulder
				{
					OFFSET 0.048002 0.079586 -0.029634 
					CHANNELS 3 Zrotation Xrotation Yrotation
					JOINT LeftArm
					{
						OFFSET 0.096243 -0.008695 -0.014012 
						CHANNELS 3 Zrotation Xrotation Yrotation
						JOINT LeftForeArm
						{
							OFFSET 0.216305 0.000000 0.000000 
							CHANNELS 3 Xrotation Zrotation Yrotation
							JOINT LeftHand
							{
								OFFSET 0.217764 0.000000 0.000000 
								CHANNELS 3 Zrotation Yrotation Xrotation
								JOINT LeftHandThumb1
								{
									OFFSET 0.018582 -0.007835 0.020476 
									CHANNELS 3 Zrotation Xrotation Yrotation
									JOINT LeftHandThumb2
									{
										OFFSET 0.026269 -0.007835 0.022186 
										CHANNELS 3 Zrotation Xrotation Yrotation
										JOINT LeftHandThumb3
										{
											OFFSET 0.035170 -0.010504 0.017018 
											CHANNELS 3 Zrotation Xrotation Yrotation
											End Site
											{
												OFFSET 0.020312 -0.007813 0.007813 
											}
										}
									}
								}
								JOINT LeftHandMiddle1
								{
									OFFSET 0.081749 0.004803 0.003358 
									CHANNELS 3 Zrotation Xrotation Yrotation
									JOINT LeftHandMiddle2
									{
										OFFSET 0.045251 0.000000 0.000000 
										CHANNELS 3 Zrotation Xrotation Yrotation
										JOINT LeftHandMiddle3
										{
											OFFSET 0.029009 0.000000 0.000000 
											CHANNELS 3 Zrotation Xrotation Yrotation
											End Site
											{
												OFFSET 0.017969 0.000000 0.000000 
											}
										}
									}
								}
								JOINT LeftHandIndex1
								{
									OFFSET 0.081207 0.004803 0.021137 
									CHANNELS 3 Zrotation Xrotation Yrotation
									JOINT LeftHandIndex2
									{
										OFFSET 0.043354 0.000000 0.000000 
										CHANNELS 3 Zrotation Xrotation Yrotation
										JOINT LeftHandIndex3
										{
											OFFSET 0.026493 0.000000 0.000000 
											CHANNELS 3 Zrotation Xrotation Yrotation
											End Site
											{
												OFFSET 0.019531 0.000000 0.000000 
											}
										}
									}
								}
								JOINT LeftHandRing1
								{
									OFFSET 0.080666 0.002509 -0.014652 
									CHANNELS 3 Zrotation Xrotation Yrotation
									JOINT LeftHandRing2
									{
										OFFSET 0.042541 0.000000 0.000000 
										CHANNELS 3 Zrotation Xrotation Yrotation
										JOINT LeftHandRing3
										{
											OFFSET 0.029009 0.000000 0.000000 
											CHANNELS 3 Zrotation Xrotation Yrotation
											End Site
											{
												OFFSET 0.015625 0.000000 0.000000 
											}
										}
									}
								}
								JOINT LeftHandPinky1
								{
									OFFSET 0.078227 -0.000612 -0.030993 
									CHANNELS 3 Zrotation Xrotation Yrotation
									JOINT LeftHandPinky2
									{
										OFFSET 0.028721 0.000000 0.000000 
										CHANNELS 3 Zrotation Xrotation Yrotation
										JOINT LeftHandPinky3
										{
											OFFSET 0.021963 0.000000 0.000000 
											CHANNELS 3 Zrotation Xrotation Yrotation
											End Site
											{
												OFFSET 0.022656 0.000000 0.000000 
											}
										}
									}
								}
							}
						}
					}
				}
				JOINT RightShoulder
				{
					OFFSET -0.047970 0.079586 -0.029634 
					CHANNELS 3 Zrotation Xrotation Yrotation
					JOINT RightArm
					{
						OFFSET -0.096274 -0.008695 -0.014012 
						CHANNELS 3 Zrotation Xrotation Yrotation
						JOINT RightForeArm
						{
							OFFSET -0.216305 0.000000 0.000000 
							CHANNELS 3 Xrotation Zrotation Yrotation
							JOINT RightHand
							{
								OFFSET -0.217764 0.000000 0.000000 
								CHANNELS 3 Zrotation Yrotation Xrotation
								JOINT RightHandThumb1
								{
									OFFSET -0.019670 -0.007318 0.019638 
									CHANNELS 3 Zrotation Xrotation Yrotation
									JOINT RightHandThumb2
									{
										OFFSET -0.025498 -0.008492 0.023179 
										CHANNELS 3 Zrotation Xrotation Yrotation
										JOINT RightHandThumb3
										{
											OFFSET -0.034504 -0.010705 0.016680 
											CHANNELS 3 Zrotation Xrotation Yrotation
											End Site
											{
												OFFSET -0.020312 -0.007813 0.007813 
											}
										}
									}
								}
								JOINT RightHandIndex1
								{
									OFFSET -0.081770 0.003825 0.021187 
									CHANNELS 3 Zrotation Xrotation Yrotation
									JOINT RightHandIndex2
									{
										OFFSET -0.042006 0.000000 0.000000 
										CHANNELS 3 Zrotation Xrotation Yrotation
										JOINT RightHandIndex3
										{
											OFFSET -0.026449 0.000000 0.000000 
											CHANNELS 3 Zrotation Xrotation Yrotation
											End Site
											{
												OFFSET -0.020312 0.000000 0.000000 
											}
										}
									}
								}
								JOINT RightHandMiddle1
								{
									OFFSET -0.084059 0.003825 0.003342 
									CHANNELS 3 Zrotation Xrotation Yrotation
									JOINT RightHandMiddle2
									{
										OFFSET -0.043881 0.000000 0.000000 
										CHANNELS 3 Zrotation Xrotation Yrotation
										JOINT RightHandMiddle3
										{
											OFFSET -0.029191 0.000000 0.000000 
											CHANNELS 3 Zrotation Xrotation Yrotation
											End Site
											{
												OFFSET -0.017969 0.000000 0.000000 
											}
										}
									}
								}
								JOINT RightHandRing1
								{
									OFFSET -0.081798 0.003030 -0.015127 
									CHANNELS 3 Zrotation Xrotation Yrotation
									JOINT RightHandRing2
									{
										OFFSET -0.042198 0.000000 0.000000 
										CHANNELS 3 Zrotation Xrotation Yrotation
										JOINT RightHandRing3
										{
											OFFSET -0.026497 0.000000 0.000000 
											CHANNELS 3 Zrotation Xrotation Yrotation
											End Site
											{
												OFFSET -0.017188 0.000000 0.000000 
											}
										}
									}
								}
								JOINT RightHandPinky1
								{
									OFFSET -0.077902 -0.000930 -0.030891 
									CHANNELS 3 Zrotation Xrotation Yrotation
									JOINT RightHandPinky2
									{
										OFFSET -0.028538 0.000000 0.000000 
										CHANNELS 3 Zrotation Xrotation Yrotation
										JOINT RightHandPinky3
										{
											OFFSET -0.021734 0.000000 0.000000 
											CHANNELS 3 Zrotation Xrotation Yrotation
											End Site
											{
												OFFSET -0.022656 0.000000 0.000000 
											}
										}
									}
								}
							}
						}
					}
				}
			}
		}
	}
	JOINT LeftUpLeg
	{
		OFFSET 0.075264 -0.025573 0.000000 
		CHANNELS 3 Xrotation Yrotation Zrotation
		JOINT LeftLeg
		{
			OFFSET 0.000000 -0.326016 -0.013516 
			CHANNELS 3 Xrotation Yrotation Zrotation
			JOINT LeftFoot
			{
				OFFSET 0.000098 -0.306172 -0.006623 
				CHANNELS 3 Xrotation Yrotation Zrotation
				JOINT LeftToeBase
				{
					OFFSET -0.001432 -0.095259 0.064705 
					CHANNELS 3 Xrotation Yrotation Zrotation
					End Site
					{
						OFFSET 0.000000 0.000000 0.079438 
					}
				}
			}
		}
	}
	JOINT RightUpLeg
	{
		OFFSET -0.075264 -0.025573 0.000000 
		CHANNELS 3 Xrotation Yrotation Zrotation
		JOINT RightLeg
		{
			OFFSET 0.000000 -0.326016 -0.013516 
			CHANNELS 3 Xrotation Yrotation Zrotation
			JOINT RightFoot
			{
				OFFSET 0.000098 -0.306172 -0.006623 
				CHANNELS 3 Xrotation Yrotation Zrotation
				JOINT RightToeBase
				{
					OFFSET -0.001432 -0.095259 0.064705 
					CHANNELS 3 Xrotation Yrotation Zrotation
					End Site
					{
						OFFSET 0.000025 0.000000 0.079438 
					}
				}
			}
		}
	}
}
MOTION
Frames: 5
Frame Time: 0.033333
-0.902323 0.696505 0.046714 -69.632202 8.119600 6.705400 7.524800 6.014400 -4.360900 2.572300 2.570300 -1.468900 2.560200 2.567800 -1.500200 -1.082200 9.007700 -1.416700 -0.000000 0.000000 -0.000000 -12.501800 41.700500 -6.351800 -13.597900 2.732900 5.116900 -43.344200 22.371000 14.601000 0.000000 0.000000 -65.523697 -6.682200 18.972900 36.167198 -11.479500 9.749300 3.914000 7.514200 -3.816800 8.589800 3.556100 -1.307200 10.873900 -26.371201 -1.366700 2.056700 -32.306702 -0.442900 0.610700 -19.367001 -0.023100 0.217800 -11.510800 -0.508600 -1.122800 -17.351400 -0.212500 0.728200 -12.975700 -0.016800 -0.232600 -40.411301 -2.079900 5.456700 -37.975800 0.173500 0.277300 -30.163099 0.347200 -0.023100 -50.847599 -2.753500 8.659500 -54.870201 -0.198800 -0.417100 -26.449499 -0.211500 0.744400 12.943800 6.560100 22.618299 46.605099 17.295700 -17.551600 -0.000000 -0.000000 65.602997 -42.331902 17.658100 0.263900 8.026400 10.012300 -10.687400 -7.271800 -5.310900 -1.136000 -0.196000 -3.182400 3.619600 3.925200 -0.098000 0.629400 9.334300 -0.124000 -0.959100 8.616800 -0.084600 1.050100 12.412500 -0.670200 -2.792000 17.452299 -0.293700 -1.100300 8.155200 -0.031300 -0.265300 19.696199 -1.200700 -6.679800 16.568199 0.021600 -0.641500 7.145200 0.022900 1.714100 18.644800 -1.187600 -10.383800 21.673300 -0.190900 -0.195800 -4.934900 -0.125300 2.259900 -25.685301 -3.061300 -12.372600 43.931702 1.298900 4.031600 -26.909401 -0.008700 0.097400 -1.897000 -0.000000 -0.000000 -23.343201 -9.092100 -6.607600 100.337601 -9.920500 -0.733700 5.937700 -5.781500 12.385800 -8.134300 0.000000 -0.000000 
-0.984401 0.702961 0.046623 -70.395500 8.990500 7.187700 7.067100 4.544600 -4.655200 2.457200 1.935600 -1.492900 2.442400 1.938400 -1.514800 -0.895300 9.450600 -1.928100 -0.000000 0.000000 -0.000000 -11.634000 42.716301 -7.570500 -11.982900 3.154100 1.564200 -44.439098 23.171600 4.161900 -0.000000 -0.000000 -63.742401 -9.192800 15.768000 32.043800 -10.947600 8.253900 3.932000 7.019200 -4.630500 9.755200 3.445900 -1.459600 10.209200 -29.808800 -1.517200 0.999400 -31.576300 -0.433700 0.618300 -18.635799 -0.022400 0.220100 -12.773100 -0.507500 -2.081300 -16.406099 -0.200500 0.733200 -12.030500 -0.017100 -0.231100 -41.765099 -2.117500 5.093500 -37.485901 0.171100 0.277400 -29.673901 0.342300 -0.024100 -52.360901 -2.688600 7.119400 -55.205002 -0.199200 -0.419000 -26.785101 -0.213700 0.742400 10.553400 5.566300 19.951599 49.249802 20.014999 -26.174900 -0.000000 -0.000000 64.798401 -36.657501 25.494301 -8.685500 8.151600 9.885600 -10.309000 -10.317800 -5.405700 -1.371700 -0.527200 -3.232900 2.743200 -3.646100 0.223300 2.257100 10.874600 -0.150100 -0.985100 10.239400 -0.089700 1.019300 7.034900 -0.332300 -1.202900 18.098600 -0.307400 -1.108800 8.835900 -0.034400 -0.277400 15.925100 -0.923900 -5.687600 17.913200 0.019400 -0.665900 8.472300 0.032500 1.688900 13.400500 -0.987600 -9.364100 24.406700 -0.224500 -0.236900 -2.237500 -0.145100 2.208200 -13.288900 -2.879400 -9.953500 32.300499 0.024000 5.032600 -28.448900 0.925600 -2.099500 -1.060100 0.000000 -0.000000 -37.535000 -3.831100 -7.812200 105.705498 -9.777500 -0.545200 0.112000 -6.113700 8.688600 -5.037200 0.000000 -0.000000 
-1.071834 0.713166 0.043338 -72.288399 9.432400 6.378900 6.169800 3.007400 -3.943000 2.242700 1.255600 -1.261100 2.233200 1.261600 -1.273600 -0.160000 10.244300 -2.567400 -0.000000 0.000000 -0.000000 -9.692900 45.599899 -9.601700 -10.402800 3.447000 -1.433600 -44.573700 21.216999 -3.180500 0.000000 -0.000000 -65.932404 -14.424600 13.122000 31.420900 -10.348400 6.274400 3.358000 7.002100 -5.072500 10.482300 3.677800 -1.653400 9.253000 -33.122700 -1.649700 -0.631200 -30.650700 -0.421800 0.627700 -17.706400 -0.021500 0.223000 -13.360500 -0.401000 -3.961400 -15.078600 -0.183400 0.739900 -10.702000 -0.017600 -0.228900 -42.522099 -2.128800 4.710700 -37.002201 0.168800 0.277400 -29.189100 0.337400 -0.025100 -54.112999 -2.713500 5.027900 -55.513100 -0.199500 -0.420800 -27.077299 -0.215600 0.740700 8.308400 4.828000 18.342199 50.130501 23.426399 -35.316200 0.000000 -0.000000 69.319801 -29.587601 34.216599 -15.991300 8.207700 9.830800 -10.141800 -14.715500 -5.522500 -2.394900 -0.219000 -3.085000 3.324700 -11.297900 0.629200 3.513400 12.187000 -0.172900 -1.006700 11.632700 -0.094800 0.992900 0.548100 0.060600 0.234200 18.777700 -0.321900 -1.117400 9.567000 -0.037900 -0.290400 11.076700 -0.605600 -5.105100 18.988701 0.017200 -0.685400 9.538800 0.039800 1.668500 7.317200 -0.816600 -8.884300 26.420200 -0.250500 -0.266100 -0.237600 -0.161400 2.170500 -5.072100 -0.046800 -6.275100 25.967100 -3.321500 5.864100 -15.324000 1.653200 -6.885800 -13.318900 -0.003400 0.706000 -48.188999 -0.085900 -6.776300 102.905899 -9.872900 -0.649700 -4.462400 -5.883000 6.792600 -2.063400 -0.000000 0.000000 
-1.163457 0.724459 0.037594 -75.369698 9.796800 4.437100 5.125700 0.917200 -2.783600 1.961900 0.415900 -0.903400 1.959000 0.422700 -0.908300 0.660200 11.471500 -3.153600 -0.000000 0.000000 -0.000000 -7.766000 50.429100 -11.235200 -9.154500 3.509000 -2.707700 -43.821899 16.903700 -7.056000 -0.000000 -0.000100 -73.117599 -16.859400 10.150500 34.854599 -10.572000 5.032700 1.473700 7.924700 -5.725400 11.684600 3.816100 -1.854800 8.363400 -36.321301 -1.769300 -2.439000 -29.786400 -0.410600 0.636300 -16.838301 -0.020600 0.225700 -13.657700 -0.270200 -6.314200 -14.046400 -0.170000 0.744800 -9.668100 -0.017900 -0.227200 -43.128201 -2.132100 4.299000 -36.639500 0.167000 0.277500 -28.823601 0.333800 -0.025800 -56.363998 -2.689300 2.745000 -55.887901 -0.200000 -0.423000 -27.424999 -0.217800 0.738600 6.536000 4.497700 18.529499 48.691002 26.639601 -42.498402 0.000000 -0.000000 73.252403 -22.324900 38.690800 -18.442801 8.183800 9.866500 -10.228200 -18.449699 -5.656900 -4.323300 0.519400 -2.803200 5.005500 -16.541800 0.922200 3.866000 12.801900 -0.183800 -1.016700 12.272500 -0.097400 0.980800 -4.657500 0.360100 0.957100 19.220501 -0.331400 -1.123000 10.038500 -0.040300 -0.298700 6.978600 -0.363600 -5.071100 19.330500 0.016400 -0.691600 9.880000 0.042100 1.662000 2.195500 -0.520100 -8.980100 27.027800 -0.258500 -0.274800 0.376800 -0.166600 2.159000 4.947400 3.905000 -2.335000 15.684100 -6.227600 6.510100 0.975100 0.995900 -9.832500 -17.411301 -0.044300 2.390300 -54.784500 1.802000 -3.932400 91.978798 -9.965900 -1.084700 -8.323000 -5.078200 6.242900 -0.039700 0.000000 -0.000000 
-1.258124 0.732328 0.031131 -78.837700 10.336500 2.391200 4.199000 -1.519800 -2.046400 1.633300 -0.476600 -0.609900 1.633600 -0.471700 -0.608400 1.265500 12.844800 -3.530100 -0.000000 0.000000 -0.000000 -7.027600 55.841301 -11.350900 -8.686300 3.414300 -2.271200 -42.152901 11.936600 -7.736300 -0.000000 -0.000100 -84.487801 -13.706200 6.548800 40.596298 -11.193500 4.526700 -0.452200 8.896300 -6.587600 13.062800 3.726400 -2.044700 7.573300 -38.111301 -1.831900 -3.600000 -28.991400 -0.400200 0.644100 -16.043699 -0.019700 0.228300 -13.668200 -0.224800 -8.028900 -13.412800 -0.161800 0.747700 -9.034700 -0.018000 -0.226100 -43.289501 -2.123500 4.005400 -35.981602 0.163800 0.277700 -28.163500 0.327100 -0.027100 -57.649700 -2.643000 1.356700 -55.487801 -0.199500 -0.420700 -27.014400 -0.215200 0.741100 5.544300 4.539800 20.033800 45.502800 28.964001 -46.343498 0.000000 0.000000 72.742500 -15.038200 36.738998 -13.771500 8.054500 9.997600 -10.619300 -20.104500 -5.721200 -6.034100 1.322800 -2.556800 6.846000 -18.354799 1.003000 3.525000 12.778000 -0.183400 -1.016300 12.236000 -0.097200 0.981500 -7.413000 0.511800 1.175900 19.272600 -0.332500 -1.123700 10.104400 -0.040600 -0.299800 4.747600 -0.243000 -5.235700 18.789900 0.017600 -0.681800 9.343800 0.038500 1.672300 -1.086700 -0.212500 -9.398300 26.011200 -0.245100 -0.260300 -0.612500 -0.158200 2.177500 13.530600 7.177100 0.304700 7.583700 -6.840700 7.589700 15.437700 -0.585200 -11.341100 -13.556000 -0.000000 0.000000 -57.001400 2.299900 -0.906900 74.995102 -9.993600 -1.729600 -11.589600 -3.686300 6.698200 1.090800 0.000000 0.000000 
